<svg width="133" height="100" viewBox="0 0 133 100" fill="none" xmlns="http://www.w3.org/2000/svg">
<g clip-path="url(#clip0_3101_711)">
<path d="M48.8292 45.5628C50.9176 41.2232 53.0125 36.8857 55.0922 32.5418C57.2284 28.0762 59.2929 23.576 61.5029 19.1495C62.6361 16.8766 63.105 14.5537 62.9704 12.0398C62.5688 4.60454 56.4034 -0.753222 49.0506 0.17592C42.8744 0.957442 38.5109 4.49165 35.6606 9.87547C33.8044 13.3793 32.2132 17.022 30.5199 20.6105C28.9525 23.9342 27.2527 27.197 25.8525 30.5988C25.6831 30.9158 25.5008 31.2284 25.3467 31.5518C21.2871 40.04 17.2101 48.5195 13.1831 57.0207C9.31461 65.1833 5.50469 73.3741 1.65353 81.5453C0.607161 83.7661 0.255477 86.0825 0.459541 88.5117C1.04351 95.4151 6.944 100.489 13.8257 99.872C20.3362 99.288 24.8365 95.6214 27.574 89.9445C31.842 81.0938 36.0253 72.1975 40.2889 63.3446C43.1415 57.4202 45.9832 51.4915 48.8292 45.5649V45.5628Z" fill="#FB923C"/>
<path d="M130.67 80.2124C128.112 75.0022 125.642 69.7465 123.134 64.5125C122.158 62.474 121.174 60.4377 120.195 58.4014C118.563 54.9519 116.941 51.4958 115.298 48.0506C110.634 38.2838 105.961 28.5234 101.291 18.7609C99.9254 15.904 98.5274 13.0602 97.2031 10.1837C95.4773 6.43677 92.8505 3.53211 89.2012 1.61304C83.9325 -1.15919 77.9061 -0.297342 73.7445 3.7492C69.8152 7.5678 68.8469 13.388 71.2783 18.4461C77.6825 31.7776 84.0692 45.1156 90.4777 58.4427C92.5596 62.7714 94.6849 67.0785 96.7907 71.3964C96.8146 71.5006 96.8189 71.6156 96.8645 71.7112C99.8712 78.0784 102.8 84.4847 105.919 90.7955C107.864 94.7313 111.001 97.5383 115.165 99.0536C122.171 101.604 129.467 98.2959 131.677 91.5705C132.962 87.6585 132.478 83.892 130.672 80.2124H130.67Z" fill="#FB923C"/>
<path d="M66.8804 29.268C66.7675 29.0379 66.7501 28.6797 66.2855 28.6862C64.3469 32.6546 62.3779 36.6339 60.4545 40.6327C58.3119 45.0895 56.2104 49.5659 54.0895 54.0336C54.0157 54.1573 53.9288 54.2746 53.868 54.4048C49.574 63.4705 45.2691 72.5296 40.9946 81.6061C40.0438 83.6272 39.6096 85.7785 39.6639 88.0276C39.8397 95.3587 46.157 100.842 53.3948 99.8937C59.0044 99.1599 62.9359 95.9579 65.8448 91.2948C66.6481 90.0075 67.1734 88.5833 67.816 87.2179C69.3378 83.9811 70.8336 80.7334 72.338 77.4901C75.3903 71.4593 77.9432 65.1941 80.926 59.1308C81.1518 58.6706 81.0129 58.3189 80.8175 57.9151C76.1696 48.3676 71.5304 38.8156 66.8825 29.2702L66.8804 29.268Z" fill="#FB923C"/>
</g>
<defs>
<clipPath id="clip0_3101_711">
<rect width="131.997" height="100" fill="white" transform="translate(0.401001)"/>
</clipPath>
</defs>
</svg>
